<?xml version="1.0" encoding="UTF-8"?>
<svg width="335px" height="72px" viewBox="0 0 335 72" version="1.1" xmlns="http://www.w3.org/2000/svg" xmlns:xlink="http://www.w3.org/1999/xlink">
    <!-- Generator: Sketch 64 (93537) - https://sketch.com -->
    <title>jimdo-logo</title>
    <desc>Created with Sketch.</desc>
    <defs>
        <polygon id="path-1" points="0 0.17645283 87.2743385 0.17645283 87.2743385 70.9171321 0 70.9171321"></polygon>
        <polygon id="path-3" points="0.352527778 0.31245283 145.78725 0.31245283 145.78725 71.9171321 0.352527778 71.9171321"></polygon>
    </defs>
    <g id="Page-1" stroke="none" stroke-width="1" fill="none" fill-rule="evenodd">
        <g id="jimdo-logo">
            <g id="Group-4" transform="translate(0.000000, 1.000000)">
                <mask id="mask-2" fill="white">
                    <use xlink:href="#path-1"></use>
                </mask>
                <g id="Clip-2"></g>
                <path d="M86.4038154,70.0707925 L68.5492923,70.0707925 C68.0686769,70.0707925 67.6787692,69.6795472 67.6787692,69.197283 L67.6787692,1.04996226 C67.6787692,0.567698113 68.0686769,0.17645283 68.5492923,0.17645283 L86.4038154,0.17645283 C86.8844308,0.17645283 87.2743385,0.567698113 87.2743385,1.04996226 L87.2743385,69.197283 C87.2743385,69.6795472 86.8844308,70.0707925 86.4038154,70.0707925" id="Fill-1" fill="#BCBCBC" mask="url(#mask-2)"></path>
                <path d="M34.5176615,0.211773585 C34.0370462,0.211773585 33.6471385,0.603018868 33.6471385,1.08528302 L33.6471385,35.1575849 L33.6552615,35.1575849 C33.6552615,44.0978113 26.4324923,51.3453585 17.5228308,51.3453585 C14.8814769,51.3453585 12.3890462,50.7055094 10.1890462,49.5752453 C9.77476923,49.3633208 9.26707692,49.5304151 9.03421538,49.9352453 L0.117784615,65.4315472 C-0.125907692,65.8540377 0.0189538462,66.4028679 0.446769231,66.6351698 C5.39507692,69.3453585 11.0487385,70.9212075 17.0652308,70.997283 C36.9613538,71.2499623 53.2427077,54.578566 53.2427077,34.6128302 L53.2427077,1.08528302 C53.2427077,0.603018868 52.8528,0.211773585 52.3721846,0.211773585 L34.5176615,0.211773585" id="Fill-3" fill="#BCBCBC" mask="url(#mask-2)"></path>
            </g>
            <path d="M108.688435,1.61360544 C108.178231,1.21632653 107.54966,1 106.903401,1 C105.29932,1 104,2.29931973 104,3.9047619 L104,70.1238095 C104,70.6081633 104.391837,71 104.87483,71 L122.804082,71 C123.288435,71 123.678912,70.6081633 123.678912,70.1238095 L123.678912,40.462585 L139,25.247619 L108.688435,1.61360544" id="Fill-5" fill="#BCBCBC"></path>
            <g id="Group-9" transform="translate(189.000000, 0.000000)">
                <mask id="mask-4" fill="white">
                    <use xlink:href="#path-3"></use>
                </mask>
                <g id="Clip-7"></g>
                <path d="M30.26975,1.20633962 L1.22636111,1.18732075 C0.743166667,1.18732075 0.352527778,1.57856604 0.352527778,2.0594717 L0.352527778,67.5753962 C0.352527778,69.5058113 1.91916667,71.0707925 3.85330556,71.0707925 L30.26975,71.0789434 L30.26975,71.0707925 C49.6846389,70.6156981 65.2843333,55.157434 65.2843333,36.138566 C65.2843333,17.1210566 49.6846389,1.66143396 30.26975,1.20633962 M30.26975,51.9011321 L30.26975,51.8929811 L20.0518889,51.8929811 L20.0518889,20.3936604 L30.26975,20.3936604 L30.26975,20.3746415 C38.8148056,20.8188679 45.6026667,27.7064151 45.6026667,36.138566 C45.6026667,44.5720755 38.8148056,51.4596226 30.26975,51.9011321" id="Fill-6" fill="#8D8D8D" mask="url(#mask-4)"></path>
                <path d="M109.898833,0.31245283 C90.0783333,0.31245283 74.0090556,16.349434 74.0090556,36.1331321 C74.0090556,55.9154717 90.0783333,71.9538113 109.898833,71.9538113 C129.720694,71.9538113 145.78725,55.9154717 145.78725,36.1331321 C145.78725,16.349434 129.720694,0.31245283 109.898833,0.31245283 M109.898833,52.3127547 C100.946806,52.3127547 93.6907222,45.069283 93.6907222,36.1331321 C93.6907222,27.1983396 100.946806,19.9548679 109.898833,19.9548679 C118.8495,19.9548679 126.106944,27.1983396 126.106944,36.1331321 C126.106944,45.069283 118.8495,52.3127547 109.898833,52.3127547" id="Fill-8" fill="#8D8D8D" mask="url(#mask-4)"></path>
            </g>
            <path d="M171.096373,1 L170.697702,1 C170.308557,1 169.933017,1.12789364 169.626871,1.36463294 L139,25.2467298 L154.319558,40.4606309 L154.319558,70.1237925 C154.319558,70.6081556 154.712786,71 155.195817,71 L173.126463,71 C173.608133,71 174,70.6081556 174,70.1237925 L174,3.90345779 C174,2.29798441 172.700579,1 171.096373,1" id="Fill-10" fill="#8D8D8D"></path>
            <path d="M123,40.1526032 L137.876421,54.7469598 C138.22056,55.0843467 138.77944,55.0843467 139.126332,54.7469598 L154,40.1526032 L138.5,25 L123,40.1526032" id="Fill-11" fill="#8D8D8D"></path>
        </g>
    </g>
</svg>