<?xml version="1.0" encoding="UTF-8"?>
<svg width="380px" height="108px" viewBox="0 0 380 108" version="1.1" xmlns="http://www.w3.org/2000/svg" xmlns:xlink="http://www.w3.org/1999/xlink">
    <!-- Generator: Sketch 64 (93537) - https://sketch.com -->
    <title>Shopify_logo_2018</title>
    <desc>Created with Sketch.</desc>
    <g id="Page-1" stroke="none" stroke-width="1" fill="none" fill-rule="evenodd">
        <g id="Shopify_logo_2018" fill-rule="nonzero">
            <path d="M82.3301762,20.4110066 C82.2563244,19.8757066 81.786407,19.57873 81.3963773,19.5464 C81.0093656,19.51407 73.4264211,19.3994133 73.4264211,19.3994133 C73.4264211,19.3994133 67.0845771,13.2707583 66.4580797,12.6473016 C65.8317598,12.0238626 64.6082347,12.2120656 64.1324588,12.3532223 C64.1266004,12.3561726 62.9415989,12.7208303 60.9468907,13.3354536 C60.6129599,12.2591296 60.1222717,10.935755 59.4219225,9.60651498 C57.1642949,5.31883265 53.857475,3.05147498 49.8620227,3.04560965 C49.8561643,3.04560965 49.8531463,3.04560965 49.8472879,3.04560965 C49.5694561,3.04560965 49.2946422,3.07207432 49.0169879,3.09558865 C48.8987541,2.95443198 48.7805202,2.81622565 48.6564279,2.68093432 C46.9157628,0.828239816 44.6847645,-0.0745853276 42.0103004,0.0048161454 C36.8506175,0.151856112 31.7117053,3.86020198 27.5449383,10.4475896 C24.6134132,15.0822806 22.3822373,20.9051433 21.7498815,25.4133233 C15.8247852,27.2395266 11.6816649,28.5157666 11.5900603,28.54527 C8.59945382,29.4803666 8.50490224,29.5715266 8.11481927,32.37717 C7.82521733,34.4973466 0,94.7132966 0,94.7132966 L65.5775393,106 L94,98.96849 C94,98.96849 82.404028,20.9463066 82.3301762,20.4110066 Z M57.6636821,14.3470823 C56.1536262,14.8117333 54.4365723,15.3410796 52.5748329,15.9145396 C52.5364868,13.314872 52.2261673,9.69769265 51.0086781,6.57161132 C54.9242426,7.30975998 56.8509574,11.7180173 57.6636821,14.3470823 Z M49.1439207,16.9732146 C45.70715,18.0318366 41.9570419,19.18759 38.1952169,20.3463466 C39.2531082,16.3144776 41.2597107,12.300293 43.7243363,9.66827765 C44.6403824,8.68899665 45.9228469,7.59795632 47.4417792,6.97449965 C48.8691069,9.93882498 49.1794264,14.1353473 49.1439207,16.9732146 Z M42.1136219,3.42201565 C43.3252526,3.39555098 44.3447978,3.66023298 45.2166393,4.23074265 C43.8217993,4.95124232 42.4741819,5.98640298 41.2094702,7.33622465 C37.93212,10.8357793 35.4202718,16.2674313 34.4184796,21.50793 C31.2948689,22.4695266 28.2392515,23.4136333 25.4259603,24.27824 C27.2021311,16.0292316 34.1495242,3.65139965 42.1136219,3.42201565 Z" id="Shape" fill="#BCBCBC"></path>
            <path d="M81.5836154,19.3214776 C81.2023585,19.2890613 73.7321707,19.1740986 73.7321707,19.1740986 C73.7321707,19.1740986 67.4848034,13.0290669 66.8676219,12.4039638 C66.6376435,12.1710093 66.3261671,12.0501124 66,12 L66.0029731,106 L94,98.9527324 C94,98.9527324 82.5764575,20.725121 82.5037039,20.1883922 C82.4307754,19.6516633 81.9650473,19.3538939 81.5836154,19.3214776 Z" id="Path" fill="#8D8D8D"></path>
            <path d="M50,34.1201664 L46.7355126,46.4857879 C46.7355126,46.4857879 43.0938877,44.8080751 38.7771725,45.0832499 C32.4465988,45.4887238 32.3793531,49.5306642 32.4437896,50.5456823 C32.7886211,56.0760195 47.1591779,57.2833755 47.9659503,70.2379207 C48.6001314,80.4288084 42.6261528,87.4002579 34.0190588,87.9506074 C23.6874558,88.610458 18,82.4408905 18,82.4408905 L20.189101,73.0134884 C20.189101,73.0134884 25.9144637,77.386954 30.4971768,77.0940031 C33.4900478,76.9016652 34.5596578,74.4368245 34.4515028,72.6938733 C34.0015012,65.4797793 22.2991752,65.9058736 21.559824,54.0520274 C20.937231,44.0772977 27.40809,33.9692469 41.6850647,33.0578638 C47.1855143,32.6998522 50,34.1201664 50,34.1201664 Z" id="Path" fill="#FFFFFF"></path>
            <path d="M131.086003,59.9702642 C127.853032,58.212908 126.1915,56.7315845 126.1915,54.6953805 C126.1915,52.104472 128.499486,50.4400063 132.103716,50.4400063 C136.299255,50.4400063 140.045385,52.1973626 140.045385,52.1973626 L143,43.1290946 C143,43.1290946 140.283173,41 132.286359,41 C121.157907,41 113.445244,47.3842929 113.445244,56.3596703 C113.445244,61.4485969 117.046489,65.3350477 121.850899,68.1089226 C125.7305,70.3280929 127.116486,71.9024828 127.116486,74.2145437 C127.116486,76.6196711 125.176773,78.5628086 121.575529,78.5628086 C116.208435,78.5628086 111.140069,75.7859429 111.140069,75.7859429 L108,84.8542109 C108,84.8542109 112.682707,88 120.560626,88 C132.013799,88 140.234,82.3561929 140.234,72.1783398 C140.231014,66.7234806 136.076043,62.8370297 131.086003,59.9702642 Z" id="Path" fill="#BCBCBC"></path>
            <path d="M177.403188,41.1912874 C171.684652,41.1912874 167.184973,43.9069617 163.718238,48.0244409 L163.529831,47.9302752 L168.497409,22 L155.560386,22 L143,87.9969739 L155.937023,87.9969739 L160.248473,65.4376166 C161.934694,56.9176691 166.340259,51.6774999 170.466331,51.6774999 C173.370874,51.6774999 174.498111,53.6435869 174.498111,56.4532489 C174.498111,58.2313605 174.309703,60.3856009 173.935918,62.1637125 L169.062454,88 L182.00019,88 L187.060636,61.3201374 C187.623898,58.5104754 188,55.1425836 188,52.8941776 C187.994653,45.5909076 184.151637,41.1912874 177.403188,41.1912874 Z" id="Path" fill="#BCBCBC"></path>
            <path d="M216.631525,41 C201.212699,41 191,54.824653 191,70.2144306 C191,80.0750129 197.127972,88 208.645735,88 C223.783769,88 234,74.5458176 234,58.7855694 C234,49.662774 228.611976,41 216.631525,41 Z M210.316358,78.2347517 C205.95084,78.2347517 204.093022,74.5486215 204.093022,69.9394692 C204.093022,62.6597388 207.902255,50.7710314 214.867305,50.7710314 C219.418251,50.7710314 220.90168,54.6422217 220.90168,58.4210571 C220.90168,66.253339 217.097745,78.2347517 210.316358,78.2347517 Z" id="Shape" fill="#BCBCBC"></path>
            <path d="M266.821335,41 C258.176144,41 253.270321,48.6584558 253.270321,48.6584558 L253.086794,48.6584558 L253.829726,41.7476429 L242.507509,41.7476429 C241.951633,46.4183685 240.928116,53.5138723 239.909893,58.8384747 L231,106 L243.808082,106 L247.332157,86.9477155 L247.612742,86.9477155 C247.612742,86.9477155 250.240357,88.6278697 255.130299,88.6278697 C270.163647,88.6278697 280,73.1262674 280,57.4341137 C280,48.7523995 276.193575,41 266.821335,41 Z M254.570894,78.9168591 C251.246228,78.9168591 249.278604,77.0491726 249.278604,77.0491726 L251.413873,65.0016447 C252.899737,56.9707882 257.074981,51.6461858 261.53081,51.6461858 C265.428998,51.6461858 266.634278,55.2877926 266.634278,58.7447086 C266.634278,67.0568635 261.716102,78.9168591 254.570894,78.9168591 Z" id="Shape" fill="#BCBCBC"></path>
            <path d="M298.472183,22 C294.311577,22 291,25.2890834 291,29.5161694 C291,33.368769 293.458949,36 297.148272,36 L297.337145,36 C301.406013,36 304.904664,33.2742541 305,28.4838306 C305,24.7255673 302.445715,22 298.472183,22 Z" id="Path" fill="#BCBCBC"></path>
            <polygon id="Path" fill="#BCBCBC" points="281 88 294.083518 88 303 42 289.81731 42"></polygon>
            <path d="M335.234976,42.0839871 L326.303523,42.0839871 L326.766989,39.9276399 C327.511719,35.5237167 330.11739,31.5875188 334.396492,31.5875188 C336.680212,31.5875188 338.488084,32.2435815 338.488084,32.2435815 L341,22.123788 C341,22.123788 338.767579,21 334.021473,21 C329.462877,21 324.907818,22.3119472 321.463663,25.3096654 C317.090806,29.0577041 315.044126,34.4911574 314.02167,39.9276399 L313.651958,42.0839871 L307.695887,42.0839871 L305.834947,51.8303131 L311.791018,51.8303131 L305,88 L317.839074,88 L324.630092,51.8303131 L333.46779,51.8303131 L335.234976,42.0839871 Z" id="Path" fill="#BCBCBC"></path>
            <path d="M366.509544,42.0030006 C366.509544,42.0030006 358.426317,62.1776346 354.797149,73.1903724 L354.608297,73.1903724 C354.362433,69.6438377 351.422754,42.0030006 351.422754,42.0030006 L337.836091,42.0030006 L345.616442,83.678358 C345.805294,84.6051909 345.710868,85.1647148 345.334945,85.8144334 C343.833036,88.6907749 341.304912,91.4767453 338.306439,93.5196256 C335.87096,95.2825674 333.153983,96.3957906 331,97.1388808 L334.559684,108 C337.184016,107.443477 342.616187,105.307401 347.207432,101.038074 C353.111733,95.5623293 358.543904,87.1142234 364.164927,75.6032092 L380,42 L366.509544,42 L366.509544,42.0030006 Z" id="Path" fill="#BCBCBC"></path>
        </g>
    </g>
</svg>