<?xml version="1.0" encoding="UTF-8"?>
<svg width="454px" height="64px" viewBox="0 0 454 64" version="1.1" xmlns="http://www.w3.org/2000/svg" xmlns:xlink="http://www.w3.org/1999/xlink">
    <!-- Generator: Sketch 64 (93537) - https://sketch.com -->
    <title>Shape</title>
    <desc>Created with Sketch.</desc>
    <g id="Page-1" stroke="none" stroke-width="1" fill="none" fill-rule="evenodd">
        <path d="M162.625,30.525 C162.625,21.525 156.125,13.825 146.325,13.825 C136.525,13.825 129.825,21.625 129.825,30.525 C129.825,39.325 136.325,47.025 146.125,47.025 C150.225,47.025 153.425,45.825 156.325,43.525 L160.625,47.425 L163.025,44.725 L158.725,41.225 C161.225,38.225 162.625,34.425 162.625,30.525 Z M156.125,38.825 L150.225,33.525 L147.825,36.225 L153.725,41.325 C151.725,42.725 149.225,43.725 146.425,43.725 C139.125,43.725 133.825,37.825 133.825,30.425 C133.825,23.125 139.125,17.125 146.425,17.125 C153.725,17.125 159.025,23.025 159.025,30.425 C159.025,33.725 158.025,36.625 156.125,38.825 L156.125,38.825 Z M193.025,32.925 C193.025,39.825 189.325,43.525 183.225,43.525 C177.125,43.525 173.425,39.625 173.425,32.725 L173.425,14.125 L169.725,14.125 L169.725,32.925 C169.725,42.125 175.225,46.825 183.225,46.825 C191.225,46.825 196.725,41.925 196.725,32.525 L196.725,14.125 L193.025,14.125 L193.025,32.925 Z M410.525,43.725 C403.425,43.725 398.125,37.825 398.125,30.425 C398.125,23.125 403.425,17.125 410.525,17.125 C414.825,17.125 417.825,18.925 420.725,21.625 L423.125,18.925 C419.825,15.825 416.425,13.825 410.525,13.825 C401.125,13.825 394.225,21.325 394.225,30.525 C394.225,39.725 401.125,47.025 410.325,47.025 C416.225,47.025 419.925,44.825 423.225,41.325 L420.825,39.125 C417.925,41.925 415.025,43.725 410.525,43.725 Z M433.425,43.125 L433.425,31.925 L450.925,31.925 L450.925,28.625 L433.425,28.625 L433.425,17.625 L453.025,17.625 L453.025,14.325 L429.725,14.325 L429.725,46.625 L453.225,46.625 L453.225,43.125 L433.425,43.125 L433.425,43.125 Z M345.825,14.425 L333.825,14.425 L333.825,46.625 L337.525,46.625 L337.525,35.225 L345.325,35.225 C352.225,35.225 357.925,31.525 357.925,24.625 C357.925,18.225 353.225,14.425 345.825,14.425 Z M354.225,24.825 C354.225,29.125 350.725,31.925 345.425,31.925 L337.425,31.925 L337.425,17.825 L345.625,17.825 C350.725,17.625 354.225,20.125 354.225,24.825 Z M113.525,28.625 C106.425,27.225 104.725,25.325 104.725,22.325 C104.725,19.425 107.425,17.225 111.625,17.225 C114.925,17.225 117.925,18.225 121.025,20.725 L123.025,17.825 C119.725,15.125 116.525,13.925 111.825,13.925 C105.725,13.925 101.225,17.625 101.225,22.725 C101.225,28.025 104.725,30.525 112.025,32.125 C118.725,33.525 120.425,35.225 120.425,38.225 C120.425,41.525 117.525,43.725 113.325,43.725 C108.825,43.725 105.525,42.325 102.325,39.225 L100.125,41.925 C104.025,45.425 108.125,47.025 113.225,47.025 C119.525,47.025 124.225,43.325 124.225,37.825 C123.925,32.725 120.625,30.325 113.525,28.625 L113.525,28.625 Z M277.325,31.925 L294.825,31.925 L294.825,28.625 L277.325,28.625 L277.325,17.625 L296.925,17.625 L296.925,14.325 L273.625,14.325 L273.625,46.625 L297.125,46.625 L297.125,43.125 L277.325,43.125 L277.325,31.925 Z M316.125,28.625 C309.025,27.225 307.325,25.325 307.325,22.325 C307.325,19.425 310.025,17.225 314.225,17.225 C317.525,17.225 320.525,18.225 323.625,20.725 L325.625,17.825 C322.325,15.125 319.125,13.925 314.425,13.925 C308.325,13.925 303.825,17.625 303.825,22.725 C303.825,28.025 307.325,30.525 314.625,32.125 C321.325,33.525 323.025,35.225 323.025,38.225 C323.025,41.525 320.125,43.725 315.925,43.725 C311.425,43.725 308.125,42.325 304.925,39.225 L302.725,41.925 C306.625,45.425 310.725,47.025 315.825,47.025 C322.125,47.025 326.825,43.325 326.825,37.825 C326.525,32.725 323.225,30.325 316.125,28.625 L316.125,28.625 Z M216.125,14.225 L201.425,46.625 L205.125,46.625 L209.025,38.025 L226.525,38.025 L230.225,46.625 L234.125,46.625 L219.425,14.225 L216.125,14.225 L216.125,14.225 Z M210.425,34.825 L217.725,18.525 L225.025,34.825 L210.425,34.825 Z M373.225,14.225 L358.525,46.625 L362.225,46.625 L366.125,38.025 L383.625,38.025 L387.325,46.625 L391.225,46.625 L376.525,14.225 L373.225,14.225 Z M367.525,34.825 L374.825,18.525 L382.125,34.825 L367.525,34.825 L367.525,34.825 Z M265.925,24.025 C265.925,21.325 264.925,19.125 263.525,17.525 C261.525,15.525 258.425,14.225 254.325,14.225 L240.425,14.225 L240.425,46.425 L244.125,46.425 L244.125,34.025 L253.325,34.025 L262.725,46.425 L267.225,46.425 L257.425,33.325 C262.225,32.325 265.925,29.325 265.925,24.025 L265.925,24.025 Z M244.025,30.725 L244.025,17.625 L254.025,17.625 C259.125,17.625 262.225,20.025 262.225,23.925 C262.225,28.025 258.725,30.425 253.825,30.425 L244.025,30.425 L244.025,30.725 Z M12.525,34.425 C13.925,35.825 16.425,35.825 18.025,34.425 L42.325,10.125 C45.425,7.025 50.125,7.025 53.125,10.125 C54.525,11.525 57.025,11.525 58.625,10.125 C60.025,8.725 60.025,6.225 58.625,4.625 C52.725,-1.275 42.925,-1.275 37.025,4.625 L12.525,28.825 C10.925,30.525 10.925,32.725 12.525,34.425 Z M50.225,18.025 C51.625,16.625 51.625,14.125 50.225,12.525 C48.825,11.125 46.325,11.125 44.725,12.525 L20.525,37.025 C17.425,40.125 12.725,40.125 9.725,37.025 C6.625,33.925 6.625,29.225 9.725,26.225 L33.625,2.325 C30.525,-0.775 25.825,-0.775 22.825,2.325 L4.425,20.725 C-1.475,26.625 -1.475,36.425 4.425,42.325 C10.325,48.225 20.125,48.225 26.025,42.325 L50.225,18.025 L50.225,18.025 Z M53.125,20.725 L28.625,45.225 C27.225,46.625 27.225,49.125 28.625,50.725 C30.025,52.125 32.525,52.125 34.125,50.725 L58.425,26.425 C61.525,23.325 66.225,23.325 69.225,26.425 C72.225,29.525 72.325,34.225 69.225,37.225 L45.325,60.925 C48.425,64.025 53.125,64.025 56.125,60.925 L74.725,42.325 C80.625,36.425 80.625,26.625 74.725,20.725 C68.625,14.825 59.025,14.825 53.125,20.725 L53.125,20.725 Z M66.625,28.825 C65.225,27.425 62.725,27.425 61.125,28.825 L36.825,53.325 C33.725,56.425 29.025,56.425 26.025,53.325 C24.625,51.925 22.125,51.925 20.525,53.325 C19.125,54.725 19.125,57.225 20.525,58.825 C26.425,64.725 36.225,64.725 42.125,58.825 L66.425,34.525 C68.025,32.725 68.025,30.525 66.625,28.825 Z" id="Shape" fill="#BCBCBC" fill-rule="nonzero"></path>
    </g>
</svg>