<svg width="22" height="31" viewBox="0 0 22 31" fill="none" xmlns="http://www.w3.org/2000/svg">
<path fill-rule="evenodd" clip-rule="evenodd" d="M22 11.1145C22 13.7336 21.0991 16.1404 19.5927 18.0376C19.5716 18.0642 19.5904 18.1035 19.6243 18.1035C19.656 18.1035 19.6753 18.1384 19.6583 18.1653L11.8445 30.5076C11.4518 31.1279 10.5472 31.1279 10.1546 30.5076L2.34099 18.1655C2.32391 18.1387 2.34329 18.1035 2.37523 18.1035C2.40927 18.1035 2.42819 18.064 2.40701 18.0374C0.900757 16.1401 0 13.7334 0 11.1145C0 4.99121 4.92487 0.0270996 11 0.0270996C17.0751 0.0270996 22 4.99121 22 11.1145ZM11 16.0271C13.7614 16.0271 16 13.7886 16 11.0271C16 8.26562 13.7614 6.0271 11 6.0271C8.23857 6.0271 6 8.26562 6 11.0271C6 13.7886 8.23857 16.0271 11 16.0271Z" fill="#772441"/>
</svg>
