<svg width="145" height="25" viewBox="0 0 145 25" fill="none" xmlns="http://www.w3.org/2000/svg">
<path fill-rule="evenodd" clip-rule="evenodd" d="M12.3637 0.5L15.2824 9.48278H24.7275L17.0863 15.0344L20.0049 24.0172L12.3637 18.4656L4.72253 24.0172L7.64121 15.0344L4.76837e-06 9.48278H9.44506L12.3637 0.5ZM42.3637 0.5L45.2824 9.48278H54.7275L47.0863 15.0344L50.0049 24.0172L42.3637 18.4656L34.7225 24.0172L37.6412 15.0344L30 9.48278H39.4451L42.3637 0.5ZM75.2824 9.48278L72.3637 0.5L69.4451 9.48278H60L67.6412 15.0344L64.7225 24.0172L72.3637 18.4656L80.0049 24.0172L77.0863 15.0344L84.7275 9.48278H75.2824ZM102.364 0.5L105.282 9.48278H114.727L107.086 15.0344L110.005 24.0172L102.364 18.4656L94.7225 24.0172L97.6412 15.0344L90 9.48278H99.4451L102.364 0.5ZM135.282 9.48278L132.364 0.5L129.445 9.48278H120L127.641 15.0344L124.723 24.0172L132.364 18.4656L140.005 24.0172L137.086 15.0344L144.727 9.48278H135.282Z" fill="#FFBA7A"/>
</svg>
