<?xml version="1.0" encoding="UTF-8"?>
<svg width="428px" height="108px" viewBox="0 0 428 108" version="1.1" xmlns="http://www.w3.org/2000/svg" xmlns:xlink="http://www.w3.org/1999/xlink">
    <!-- Generator: Sketch 64 (93537) - https://sketch.com -->
    <title>Webflow_logo</title>
    <desc>Created with Sketch.</desc>
    <g id="Page-1" stroke="none" stroke-width="1" fill="none" fill-rule="evenodd">
        <g id="Webflow_logo" fill="#BCBCBC" fill-rule="nonzero">
            <path d="M138.201163,42.233153 C138.201163,34.5302509 130.735123,26.3492376 117.815168,26.3492376 C103.306693,26.3492376 87.3685513,37.0270536 84.932822,58.3295622 C82.444142,79.8445647 95.7877026,89.406788 109.237164,89.406788 C122.686626,89.406788 129.729061,84.1475652 136.930348,77.1352681 C130.735123,69.326119 122.739577,72.9385145 121.204008,73.7353665 C119.509588,74.5853419 117.338612,75.754058 112.890758,75.754058 C107.701596,75.754058 102.406532,73.4166257 102.406532,63.695032 C135.659532,60.4013773 138.201163,49.9360551 138.201163,42.233153 Z M121.733515,43.5081161 C121.521712,45.8986719 120.568601,49.9891786 103.730298,52.2734875 C107.277991,39.6301033 114.055672,38.673881 117.17976,38.673881 C120.092045,38.673881 121.945317,40.9581899 121.733515,43.5081161 Z M65.3940369,45.5799311 C65.3940369,45.5799311 58.2457009,68.1042794 57.6632438,69.9636006 C57.4514413,68.0511559 52.2093282,27.6242007 52.2093282,27.6242007 C40.0306817,27.6242007 33.5177533,36.3364486 30.0759619,45.5268077 C30.0759619,45.5268077 21.3920574,68.1042794 20.6507485,70.0167241 C20.5977978,68.2636498 19.3269826,45.792425 19.3269826,45.792425 C18.5856736,34.5302509 8.31325003,27.6773242 0,27.6773242 L10.0606211,88.9286768 C22.8217246,88.8755534 29.7053074,80.2164289 33.3059508,71.0260698 C33.3059508,71.0260698 40.9837931,51.1047713 41.301497,50.2016724 C41.3544476,51.0516478 46.8083632,88.9286768 46.8083632,88.9286768 C59.6224174,88.9286768 66.5060002,80.800787 70.2125448,71.9291687 L88.1628108,27.6773242 C75.5076086,27.6773242 68.8358283,36.3364486 65.3940369,45.5799311 Z M185.221329,26.2429907 C177.331684,26.2429907 171.295311,30.5459911 166.21205,36.8676832 L166.21205,36.8145598 L170.765805,0 C160.281579,0 151.756526,9.13723561 150.115056,22.7368421 L142.172461,88.4505657 C148.208833,88.4505657 154.61586,86.6974914 158.057652,82.2351205 C161.128789,86.2193802 165.735494,89.406788 172.566126,89.406788 C190.251639,89.406788 202.377335,68.7948844 202.377335,49.4579439 C202.271434,31.8209543 193.746381,26.2429907 185.221329,26.2429907 Z M183.579859,57.8514511 C181.726587,68.635514 175.743165,75.9665519 169.971545,75.9665519 C164.146975,75.9665519 161.658295,73.3635022 161.658295,73.3635022 C162.770259,63.9075258 163.458617,58.1170684 165.576642,53.1234629 C167.694668,48.1298574 172.724978,40.1613379 177.967091,40.1613379 C183.103303,40.1613379 185.433131,47.0142646 183.579859,57.8514511 Z M246.538167,27.6773242 L234.200668,27.6773242 L234.253619,27.0398426 C235.100829,18.9650762 237.007052,14.7151992 243.308178,14.0245942 C247.597179,13.5996065 249.503402,11.3684211 249.979958,8.92474176 C250.350612,7.0122971 251.515526,0.37186424 251.515526,0.37186424 C226.734628,0.212493851 218.950885,10.9434333 216.93876,27.3054599 L216.88581,27.6773242 L216.621057,27.6773242 C212.596808,27.6773242 208.148955,32.245942 207.407646,38.0363994 L207.142892,40.1613379 L215.403192,40.1613379 L208.466658,97.6409247 L206.348633,107.946877 C206.613386,107.946877 206.93109,108 207.195843,108 C218.792033,107.575012 226.205122,98.3846532 227.846592,85.050664 L233.247557,40.1613379 L237.112953,40.1613379 C240.925399,40.1613379 245.373253,36.3364486 246.167512,29.9616331 L246.538167,27.6773242 Z M310.714339,26.6148549 C296.470617,26.6148549 283.021156,37.1333005 278.891006,53.6546975 C274.760856,70.1760944 281.009031,89.7255288 301.977484,89.7255288 C322.892985,89.7255288 334.965731,69.3792425 334.965731,52.4328578 C334.965731,35.5927201 323.581344,26.6148549 310.714339,26.6148549 Z M316.485958,57.3202164 C315.744649,64.8106247 312.46171,76.1790457 303.460101,76.1790457 C294.405542,76.1790457 295.676358,62.89818 296.576519,56.5764879 C297.52963,49.8298082 301.289125,40.2144614 309.390573,40.2144614 C316.64481,40.2144614 317.333168,48.8735858 316.485958,57.3202164 Z M405.337127,45.5799311 C405.337127,45.5799311 398.188791,68.1042794 397.606334,69.9636006 C397.394532,68.0511559 392.152419,27.6242007 392.152419,27.6242007 C379.973772,27.6242007 373.460844,36.3364486 370.019052,45.5268077 C370.019052,45.5268077 361.335148,68.1042794 360.593839,70.0167241 C360.540888,68.2636498 359.270073,45.792425 359.270073,45.792425 C358.528764,34.5302509 348.25634,27.6773242 339.94309,27.6773242 L349.950761,88.9286768 C362.711864,88.8755534 369.595447,80.2164289 373.196091,71.0260698 C373.196091,71.0260698 380.873933,51.1047713 381.138686,50.2016724 C381.244587,51.0516478 386.645552,88.9286768 386.645552,88.9286768 C399.459607,88.9286768 406.343189,80.800787 410.049734,71.9291687 L428,27.6773242 C415.397748,27.6773242 408.725968,36.3364486 405.337127,45.5799311 Z M258.187307,0.37186424 L247.808982,84.360059 L247.808982,84.360059 L245.690956,94.7191343 C245.95571,94.7191343 246.273413,94.7722577 246.538167,94.7722577 L246.538167,94.7722577 C257.710751,94.6128874 265.653347,84.7850467 267.135964,72.4072799 L273.119386,24.2242991 C274.919708,9.50909985 266.182853,0.37186424 258.187307,0.37186424 Z" id="Shape"></path>
        </g>
    </g>
</svg>