<?xml version="1.0" encoding="UTF-8"?>
<svg width="311px" height="121px" viewBox="0 0 311 121" version="1.1" xmlns="http://www.w3.org/2000/svg" xmlns:xlink="http://www.w3.org/1999/xlink">
    <!-- Generator: Sketch 64 (93537) - https://sketch.com -->
    <title>Wix.com_website_logo</title>
    <desc>Created with Sketch.</desc>
    <g id="Page-1" stroke="none" stroke-width="1" fill="none" fill-rule="evenodd">
        <g id="Wix.com_website_logo" transform="translate(0.000000, 0.000000)" fill="#BCBCBC" fill-rule="nonzero">
            <path d="M178,2.3 C172,5.3 169.4,10.9 169.4,26.1 C169.4,26.1 172.4,23.1 177.2,21.3 C180.7,20 183.2,18.3 185,17 C190.2,13.1 191,8.4 191,0.2 C190.9,0.2 182.7,-0.3 178,2.3 Z" id="Path"></path>
            <path d="M141.3,5.8 C136.1,10.1 134.8,17.5 134.8,17.5 L118,81.9 L104.2,29.2 C102.9,23.6 100.3,16.7 96.4,11.9 C91.6,5.8 81.6,5.4 80.4,5.4 C79.5,5.4 69.6,5.8 64.4,11.9 C60.5,16.7 57.9,23.6 56.6,29.2 L43.6,81.9 L26.8,17.5 C26.8,17.5 25.5,10.6 20.3,5.8 C12.1,-1.6 0,0.2 0,0.2 L32,120.7 C32,120.7 42.4,121.6 47.6,119 C54.5,115.5 58,113 61.9,96.5 C65.8,81.8 76.2,39 77,36 C77.4,34.7 78.3,30.8 80.9,30.8 C83.5,30.8 84.4,34.3 84.8,36 C85.7,39 96,81.8 99.9,96.5 C104.2,112.9 107.2,115.5 114.2,119 C119.4,121.6 129.8,120.7 129.8,120.7 L161.6,0.2 C161.6,0.2 149.5,-1.5 141.3,5.8 Z" id="Path"></path>
            <path d="M190.9,19.6 C190.9,19.6 188.7,22.6 184.4,25.2 C181.4,26.9 178.8,27.8 175.8,29.5 C170.6,32.1 169.3,34.7 169.3,38.6 L169.3,39.9 L169.3,46.4 L169.3,46.4 L169.3,47.7 L169.3,120.3 C169.3,120.3 177.5,121.2 182.7,118.6 C189.6,115.1 190.9,111.7 190.9,97 L190.9,24.4 L190.9,24.4 L190.9,19.6 L190.9,19.6 Z" id="Path"></path>
            <path d="M270.4,60.7 L311,0.6 C311,0.6 294.2,-2.4 285.5,5.4 C279.9,10.2 274.3,19.2 274.3,19.2 L259.6,40.8 C258.7,42.1 257.9,43 256.6,43 C255.3,43 254,41.7 253.6,40.8 L238.9,19.2 C238.9,19.2 232.9,10.6 227.7,5.4 C219.1,-2.4 202.2,0.6 202.2,0.6 L241.5,60.6 L201.3,120.6 C201.3,120.6 219,122.8 227.7,115 C233.3,110.2 238.5,102 238.5,102 L253.2,80.4 C254.1,79.1 254.9,78.2 256.2,78.2 C257.5,78.2 258.8,79.5 259.2,80.4 L273.9,102 C273.9,102 279.5,110.2 284.7,115 C293.3,122.8 310.6,120.6 310.6,120.6 L270.4,60.7 Z" id="Path"></path>
        </g>
    </g>
</svg>